<?xml version="1.0" encoding="utf-8"?>
<!-- Svg Vector Icons : http://www.onlinewebfonts.com/icon -->
<!DOCTYPE svg PUBLIC "-//W3C//DTD SVG 1.1//EN" "http://www.w3.org/Graphics/SVG/1.1/DTD/svg11.dtd">
<svg version="1.1" xmlns="http://www.w3.org/2000/svg" xmlns:xlink="http://www.w3.org/1999/xlink" x="0px" y="0px" viewBox="0 0 1000 1000" enable-background="new 0 0 1000 1000" xml:space="preserve">
<metadata> Svg Vector Icons : http://www.onlinewebfonts.com/icon </metadata>
<g><g transform="translate(0.000000,511.000000) scale(0.100000,-0.100000)"><path d="M9004.3,4582.9c-23-13.4-57.4-45.9-76.6-70.8c-30.6-44-32.5-149.3-38.3-1368.4c-3.8-725.4,0-1366.5,5.7-1423.9c9.6-78.5,26.8-116.7,67-158.9l53.6-53.6h377.1h377l65.1,65.1l65.1,65.1v1418.2v1418.2l-55.5,61.3l-55.5,63.2l-371.3,3.8C9144,4605.8,9036.8,4602,9004.3,4582.9z"/><path d="M8487.5,4238.3l-42.1-44V3063.2c0-622,5.7-1146.4,11.5-1163.7c19.1-47.8,112.9-86.1,218.2-86.1h95.7v1234.5v1234.5h-120.6C8548.8,4282.4,8522,4274.7,8487.5,4238.3z"/><path d="M5714.3,3928.3c-111-24.9-878.5-367.5-1259.4-560.8c-377-193.3-599-518.7-646.9-955l-9.6-82.3l116.7-36.4c65.1-19.1,424.9-132.1,800-248.8c373.2-116.7,687.1-212.4,698.6-212.4c9.6,1.9,70.8,90,137.8,199c65.1,109.1,158.9,245,208.6,298.6c86.1,95.7,413.4,363.6,445.9,363.6c7.7,0,24.9-13.4,38.3-30.6c30.6-34.4,34.4-28.7-193.3-210.5c-91.9-72.7-197.1-168.4-233.5-214.4c-111-130.1-333-503.4-357.9-597.1c-74.6-279.4,166.5-558.9,457.4-532.1c172.3,17.2,262.2,80.4,451.7,315.8c174.2,216.3,248.8,279.4,800,700.5l168.4,128.2h497.6h495.7v851.7V3957l-1247.9-1.9C6114.3,3955.1,5806.2,3947.4,5714.3,3928.3z"/><path d="M2933.4,2397.2c-26.8-13.4-59.3-45.9-72.7-70.8c-11.5-24.9-130.2-390.4-264.1-815.3c-158.9-509.1-237.3-788.5-229.7-817.2c32.5-126.3-17.2-109.1,1965.6-727.3C5360.2-355,6217.6-617.2,6236.8-617.2c86.1,0,155,70.8,197.1,195.2c151.2,463.2,461.3,1479.5,461.3,1510.1c0,114.8-78.5,176.1-304.3,239.2l-122.5,32.5l-38.3-55.5c-84.2-120.6-220.1-233.5-327.3-273.7c-279.4-103.3-568.4-5.8-715.8,243.1c-45.9,80.4-51.7,109.1-51.7,267.9v178l-239.2,74.6c-1582.8,497.6-2023,631.6-2065.1,631.6C3004.2,2424,2960.2,2412.5,2933.4,2397.2z M3442.5,1623.9c149.3-68.9,223.9-223.9,181.8-380.9c-42.1-160.8-164.6-252.6-333-252.6c-273.7,0-423,310.1-260.3,537.8c45.9,67,179.9,132.1,266,132.1C3333.4,1660.3,3398.4,1643.1,3442.5,1623.9z M4837.7,1599.1c170.3-42.1,348.3-193.3,444-379c49.8-95.7,53.6-122.5,53.6-315.8c0-202.9-1.9-214.4-65.1-331.1c-78.5-143.5-197.1-258.4-342.6-325.4c-95.7-45.9-134-51.7-300.5-51.7c-166.5,0-204.8,5.7-296.7,49.8c-156.9,74.6-275.6,189.5-348.3,338.8c-59.3,118.7-63.2,141.6-63.2,319.6c0,178,3.8,201,63.2,319.6C4141,1545.5,4468.3,1690.9,4837.7,1599.1z M6112.4,787.6c195.2-97.6,237.3-378.9,82.3-535.9c-107.2-105.3-248.8-128.2-386.6-63.2c-233.5,114.8-254.6,438.3-36.4,581.8C5873.1,835.4,6001.4,843.1,6112.4,787.6z"/><path d="M200.3-980.9c-34.5-21.1-70.8-61.2-80.4-88c-28.7-72.7-24.9-2811.5,1.9-2865.1c53.6-103.4,74.6-109.1,482.3-109.1H985l55.5,55.5c53.6,53.6,55.5,63.2,57.4,235.4c0,97.6,0,740.7,0,1429.7l1.9,1251.7l-59.3,59.3l-59.3,59.3l-359.8,5.7C290.2-942.6,259.6-944.5,200.3-980.9z"/><path d="M1230-2504.4v-1236.4l126.3,7.7c216.3,13.4,199-91.9,199,1234.5v1136.9l-47.8,45.9c-38.3,40.2-65.1,47.9-162.7,47.9H1230V-2504.4z"/><path d="M1693.1-2540.7l5.7-911l210.5-72.7c116.8-40.2,409.6-168.4,650.7-283.3c754.1-363.6,1226.8-553.1,1423.9-572.2c88-9.6,135.9,0,271.8,47.8c369.4,132.1,2252.7,922.5,2356,987.6c105.3,68.9,174.2,223.9,166.5,375.1l-7.7,118.7l269.9,126.3c323.5,151.2,357.9,174.2,419.2,267.9c185.7,279.4-42.1,660.3-377,629.7c-82.3-7.7-319.6-111-1251.7-547.4c-656.5-308.1-1175.2-539.7-1205.8-539.7c-55.5,0-1085.2,132.1-1092.8,141.6c-1.9,1.9,312,40.2,696.7,86.1c386.6,45.9,731.1,91.9,765.6,101.4c157,42.1,277.5,218.2,275.6,400c0,160.8-36.4,264.1-126.3,354.1c-141.6,139.7-160.8,141.6-945.5,49.8c-375.1-44-721.5-80.4-769.4-80.4c-49.8,0-457.4,51.7-909.1,114.8c-451.7,63.2-823,114.8-824.9,114.8C1691.2-1631.6,1691.2-2041.2,1693.1-2540.7z"/></g></g>
</svg>