<?xml version="1.0" encoding="utf-8"?>
<!-- Generator: Adobe Illustrator 16.0.0, SVG Export Plug-In . SVG Version: 6.00 Build 0)  -->
<!DOCTYPE svg PUBLIC "-//W3C//DTD SVG 1.1//EN" "http://www.w3.org/Graphics/SVG/1.1/DTD/svg11.dtd">
<svg version="1.1" id="Layer_1" xmlns="http://www.w3.org/2000/svg" xmlns:xlink="http://www.w3.org/1999/xlink" x="0px" y="0px"
	 width="512px" height="512px" viewBox="0 0 512 512" enable-background="new 0 0 512 512" xml:space="preserve">
<g>
	<path fill="#020201" d="M72.519,235v158c0,11.046,6.741,20,15.057,20h30.867c8.316,0,15.057-8.954,15.057-20V235
		c0-0.506-0.029-1.003-0.057-1.5H374.52V389c0,11.046,6.74,20,15.057,20h30.867c8.315,0,15.057-8.954,15.057-20V233.5h29.981v-56
		l-104.743-65L256,47.5l-104.742,65l-104.739,65v56h26.057C72.549,233.997,72.519,234.493,72.519,235z M424.75,211h-4.307h-30.867
		H87.25C81.589,211,77,206.411,77,200.75s4.589-10.25,10.25-10.25h337.5c5.661,0,10.25,4.589,10.25,10.25S430.411,211,424.75,211z"
		/>
	<path fill="#020201" d="M456.5,419.5h-401c-11.046,0-20,8.954-20,20v5c0,11.046,8.954,20,20,20h401c11.046,0,20-8.954,20-20v-5
		C476.5,428.454,467.546,419.5,456.5,419.5z"/>
	<path fill="#020201" d="M210,262.5c-11.046,0-20,8.954-20,20v95c0,11.046,8.954,20,20,20h92c11.046,0,20-8.954,20-20v-95
		c0-11.046-8.954-20-20-20H210z M263,340.183V357.5c0,4.143-3.357,7.5-7.5,7.5c-4.142,0-7.5-3.357-7.5-7.5v-17.73
		c-6.775-3.055-11.5-9.854-11.5-17.77c0-10.77,8.73-19.5,19.5-19.5s19.5,8.73,19.5,19.5C275.5,330.299,270.307,337.368,263,340.183z
		"/>
</g>
</svg>
