<?xml version="1.0" encoding="utf-8"?>
<!-- Svg Vector Icons : http://www.onlinewebfonts.com/icon -->
<!DOCTYPE svg PUBLIC "-//W3C//DTD SVG 1.1//EN" "http://www.w3.org/Graphics/SVG/1.1/DTD/svg11.dtd">
<svg version="1.1" xmlns="http://www.w3.org/2000/svg" xmlns:xlink="http://www.w3.org/1999/xlink" x="0px" y="0px" viewBox="0 0 1000 1000" enable-background="new 0 0 1000 1000" xml:space="preserve">
<metadata> Svg Vector Icons : http://www.onlinewebfonts.com/icon </metadata>
<g><g transform="translate(0.000000,511.000000) scale(0.100000,-0.100000)"><path d="M7007.1,4974.8c-70.1-21.9-267.2-61.3-438.1-87.6c-276-43.8-392.1-48.2-1097.5-48.2c-869.7-2.2-1198.3,28.5-1684.6,151.2l-61.3,17.5l89.8-162.1C4328,3936.4,4687.2,2878.3,4873.4,1737c37.2-234.4,70.1-429.4,72.3-431.6c2.2-4.4,74.5,24.1,159.9,61.3c361.4,151.2,764.5,192.8,1123.8,118.3c87.6-19.7,164.3-28.5,170.9-21.9c6.6,6.6,19.7,173,28.5,368c48.2,998.9,302.3,2186.2,635.3,2968.3c48.2,111.7,85.4,205.9,81.1,210.3C7140.7,5012,7079.4,4996.7,7007.1,4974.8z M5786.9,3577.1c317.6-159.9,422.8-703.2,212.5-1084.4c-260.7-471-806.2-293.5-885,291.3c-59.2,435.9,170.9,836.8,481.9,836.8C5659.9,3620.9,5736.6,3603.4,5786.9,3577.1z"/><path d="M8523,3914.5c-24.1-21.9-387.8-113.9-602.4-151.1c-118.3-21.9-326.4-43.8-464.4-52.6l-249.7-13.1l-74.5-219.1c-219.1-639.7-363.6-1331.9-411.8-1960.6l-13.1-186.2l223.4-120.5c122.7-65.7,230-122.7,238.8-127.1c8.8-2.2,41.6,100.8,74.5,230C7443,2085.3,7863.6,2917.7,8547.1,3886C8573.4,3923.3,8553.7,3947.3,8523,3914.5z"/><path d="M2426.5,3489.5c396.5-350.5,854.3-869.7,1147.9-1303.4c254.1-372.4,538.9-893.8,665.9-1209.2l37.2-92l195,131.4l192.8,131.4l-30.7,168.7c-111.7,604.6-337.3,1275-644,1932.1l-116.1,245.4l-177.4-13.2c-278.2-21.9-1158.8,50.4-1358.2,111.7C2314.8,3599,2354.2,3553,2426.5,3489.5z"/><path d="M5657.7,1143.3c-166.5-32.9-389.9-159.9-733.9-416.2C4260.1,229.9,3561.2-232.4,3193.2-416.4C2880-571.9,2888.7-569.7,2130.8-585.1C1320.2-602.6,1296.1-607,1099-801.9c-212.5-212.5-205.9-168.7-205.9-1535.6c0-1367-6.6-1323.1,205.9-1535.6c199.4-199.4,208.1-201.5,1130.4-216.9c979.2-19.7,944.2-11,1656.1-352.7c676.9-324.2,701-328.6,1702.1-341.7c435.9-6.6,793-6.6,793-2.2c0,6.6-15.3,57-35,113.9c-52.6,155.5-35.1,407.5,39.4,560.8l59.2,118.3l-81.1,70.1c-46,37.2-111.7,127.1-146.8,197.1c-59.1,116.1-65.7,149-65.7,337.4c0,186.2,6.6,223.4,59.2,324.2l59.2,116.1l-81.1,74.5c-46,41.6-111.7,127.1-149,190.6c-59.1,107.3-63.5,133.6-63.5,346.1c0,197.2,6.6,243.1,50.4,324.2c72.3,133.6,186.2,254.1,284.8,297.9l85.4,39.5l-41.6,111.7c-48.2,120.5-61.3,324.2-32.9,455.6c15.3,74.5,11,81.1-37.2,89.8c-48.2,8.8-67.9-11-164.3-166.5c-241-394.3-552.1-681.3-933.2-867.5c-295.7-144.6-427.2-177.5-779.9-190.6c-376.8-15.4-455.6,13.1-181.8,67.9c755.8,149,1423.9,679.1,1761.3,1397.6c46,100.8,105.1,245.3,131.4,324.2c26.3,78.8,50.4,144.6,52.6,146.8c4.4,4.4,59.2-21.9,124.9-57c300.1-164.3,749.2-265.1,1174.2-265.1c523.5,0,898.1,129.2,1058.1,363.6c74.5,111.7,85.4,319.8,21.9,420.6c-78.9,127.1-319.8,212.5-788.6,280.4c-276,39.4-304.5,50.4-714.1,289.2c-554.2,322-764.5,403.1-1115,427.2C5835.1,1158.7,5712.4,1154.3,5657.7,1143.3z"/><path d="M6895.4-950.9c-127-35-230-186.2-230-341.7c2.2-109.5,74.5-247.6,157.7-293.5c65.7-37.2,144.6-39.4,981.4-39.4c714.1,0,924.4,6.6,979.2,30.6c225.6,94.2,184,462.2-70.1,591.5l-107.3,57l-834.6,4.4C7313.8-939.9,6919.5-944.3,6895.4-950.9z"/><path d="M6523-2017.7c-276-124.9-254.1-569.6,30.7-648.4c100.8-28.5,2170.9-28.5,2291.4,0c181.8,41.6,308.9,284.8,245.4,475.4c-21.9,67.9-48.2,94.2-135.8,138L8845-1998l-1128.2,4.4C6803.4-1989.3,6575.6-1993.6,6523-2017.7z"/><path d="M6687.3-3075.8c-223.4-113.9-241-475.4-28.5-613.4c54.8-37.2,129.2-39.4,992.4-39.4h931l109.5,54.8c129.3,63.5,199.3,162.1,221.2,300.1c17.5,127.1-28.5,230-127.1,284.8c-65.7,35-157.7,39.4-1047.1,46C6842.8-3038.6,6757.4-3040.7,6687.3-3075.8z"/><path d="M6873.5-4120.7c-273.8-124.8-254.1-569.6,28.5-648.4c96.4-26.3,1134.7-28.5,1272.8-2.2c170.9,32.9,295.7,168.7,322,346.1c21.9,148.9-6.6,205.9-133.6,269.4c-109.5,54.8-113.9,54.8-766.7,61.3C7077.2-4090.1,6926.1-4096.6,6873.5-4120.7z"/></g></g>
</svg>